<svg xmlns="http://www.w3.org/2000/svg" viewBox="0 0 250 250" width="512" height="512" fill="none">
  <rect width="250" height="250" fill="#000000"/>
  <!-- Right bracket -->
  <path d="M 240.77,58.94 C 221.51,59.77 207.66,65.38 207.66,82.56 V 117.21 L 224.16,134.41 C 215.96,139.21 197.05,141.11 185.06,135.74 L 240.77,188.94 V 58.94 Z" fill="#e63946"/>
  <!-- Bracket shadow -->
  <path d="M 207.66,98.09 L 224.16,134.41 L 207.66,117.21 V 98.09 Z" fill="#9f1239"/>
  <!-- Fill connector -->
  <path d="M 151.28,66.62 L 224.16,134.41 C 215.96,139.21 197.05,141.11 185.06,135.74 V 189.38 H 160.61 C 176.21,167.13 171.11,141.19 150.98,121.06 L 151.28,66.62 Z" fill="#f0f0f0"/>
  <!-- Bottom hook -->
  <path d="M 49.35,196.72 C 61.09,199.18 74.94,194.77 83.73,186.98 L 96.07,199.33 L 126.68,168.72 C 132.08,163.32 129.91,154.94 123.25,150.29 L 116.28,140.11 L 137.51,118.88 L 150.98,132.35 C 165.91,147.28 166.25,171.88 150.38,187.75 L 96.19,243 L 49.35,196.72 Z" fill="#e63946"/>
  <!-- Hook overlap -->
  <path d="M 126.38,152.11 C 141.16,165.21 148.75,179.92 138.28,199.71 L 150.38,187.61 C 164.94,173.05 165.01,150.14 150.16,133.49 L 137.51,118.88 L 116.28,140.11 L 126.38,152.11 Z" fill="#c8303c"/>
  <!-- K upper arm -->
  <path d="M 146.79,6 L 187.91,47.71 L 167.32,69.51 L 146.79,49.05 L 116.21,80.81 C 110.81,86.21 111.03,93.81 116.43,99.21 L 131.36,113.41 L 110.13,134.64 L 93.08,117.59 C 78.15,104.12 77.93,79.06 93.52,63.47 L 146.79,6 Z" fill="#94a3b8"/>
  <!-- K spine -->
  <path d="M 58.98,59.16 H 83.13 C 67.26,79.29 68.87,106.26 86.91,125.22 L 91.02,128.89 V 153.95 C 91.02,171.13 75.08,188.87 55.54,188.87 C 43.8,188.87 34.64,183.04 28.52,175.51 L 8.32,151.21 L 29.33,130.2 L 48.87,152.33 C 53.18,157.21 58.98,155.28 58.98,148.46 V 59.16 Z" fill="#94a3b8"/>
</svg>